<svg width="118" height="141" viewBox="0 0 118 141" fill="none" xmlns="http://www.w3.org/2000/svg">
<path d="M72.8227 11.8265C71.9831 6.89621 68.3212 2.68348 63.1585 1.39165C56.1935 -0.351147 49.1345 3.88226 47.3917 10.8472C46.4758 14.5075 47.2104 18.1938 49.1246 21.1208L31.7916 37.9121C30.6926 37.2399 29.4743 36.7209 28.1585 36.3917C21.1935 34.6489 14.1344 38.8823 12.3917 45.8472C10.9385 51.6545 13.64 57.5271 18.6154 60.3291L14.4868 83.0092C8.47111 82.7791 2.91105 86.7751 1.39165 92.8472C-0.351147 99.8122 3.88226 106.871 10.8472 108.614C15.7185 109.833 20.6358 108.129 23.7481 104.611L36.6646 116.637C36.1117 117.623 35.6793 118.698 35.3917 119.847C33.6489 126.812 37.8823 133.871 44.8472 135.614C51.8122 137.357 58.8712 133.123 60.614 126.158C60.6368 126.067 60.6586 125.976 60.6794 125.885L90.2107 129.336C91.1006 134.199 94.7394 138.336 99.8472 139.614C104.728 140.835 109.656 139.122 112.767 135.59L112.897 135.54L112.871 135.47C114.147 133.985 115.106 132.188 115.614 130.158C117.357 123.193 113.123 116.134 106.158 114.392C105.683 114.273 105.206 114.181 104.731 114.117L99.6637 100.823C100.279 100.27 100.879 99.6884 101.465 99.0794L101.872 98.6559L101.7 98.0941C100.946 95.6268 99.5348 93.8152 97.4284 92.7983L96.839 92.5138L96.3424 92.94C91.8447 96.7995 87.3952 98.652 82.978 98.652C76.7745 98.652 71.7627 96.2995 67.8613 91.5656C63.9974 86.8084 61.9936 79.9109 61.9936 70.7301C61.9936 63.4457 63.1693 57.8071 65.4306 53.7308C66.4711 51.858 67.724 50.3157 69.1837 49.0896C70.6579 47.8513 72.2016 46.9821 73.8153 46.4635L73.8255 46.4601C75.4657 45.9133 77.6753 45.6207 80.4936 45.6207C83.0054 45.6207 84.968 46.1236 86.4525 47.0547C86.4069 48.123 86.3842 49.312 86.3842 50.6207C86.3842 52.2935 86.8037 53.9457 87.6148 55.568C88.1531 56.6446 88.9972 57.4768 90.1012 58.0656L90.1128 58.0718L90.1245 58.0777C91.2544 58.6426 92.6932 58.8864 94.3686 58.8864C96.2407 58.8864 98.1038 58.2186 99.9424 56.9817L100.351 56.7068L100.382 56.2152L101.038 45.8558L101.04 45.8243V45.7926V45.7908V45.7889V45.7871V45.7852V45.7834V45.7815V45.7796V45.7777V45.7758V45.7739V45.772V45.7701V45.7681V45.7662V45.7642V45.7623V45.7603V45.7583V45.7563V45.7544V45.7524V45.7503V45.7483V45.7463V45.7443V45.7422V45.7402V45.7381V45.7361V45.734V45.7319V45.7298V45.7277V45.7256V45.7235V45.7214V45.7192V45.7171V45.715V45.7128V45.7106V45.7085V45.7063V45.7041V45.7019V45.6997V45.6975V45.6953V45.693V45.6908V45.6885V45.6863V45.684V45.6817V45.6795V45.6772V45.6749V45.6726V45.6703V45.6679V45.6656V45.6633V45.6609V45.6586V45.6562V45.6539V45.6515V45.6491V45.6467V45.6443V45.6419V45.6395V45.637V45.6346V45.6322V45.6297V45.6272V45.6248V45.6223V45.6198V45.6173V45.6148V45.6123V45.6098V45.6073V45.6047V45.6022V45.5996V45.5971V45.5945V45.5919V45.5894V45.5868V45.5842V45.5816V45.5789V45.5763V45.5737V45.571V45.5684V45.5657V45.5631V45.5604V45.5577V45.555V45.5523V45.5496V45.5469V45.5442V45.5414V45.5387V45.5359V45.5332V45.5304V45.5277V45.5249V45.5221V45.5193V45.5165V45.5137V45.5108V45.508V45.5052V45.5023V45.4995V45.4966V45.4937V45.4909V45.488V45.4851V45.4822V45.4793V45.4763V45.4734V45.4705V45.4675V45.4646V45.4616V45.4586V45.4557V45.4527V45.4497V45.4467V45.4437V45.4406V45.4376V45.4346V45.4315V45.4285V45.4254V45.4224V45.4193V45.4162V45.4131V45.41V45.4069V45.4038V45.4006V45.3975V45.3944V45.3912V45.3881V45.3849V45.3817V45.3785V45.3753V45.3721V45.3689V45.3657V45.3625V45.3592V45.356V45.3528V45.3495V45.3462V45.343V45.3397V45.3364V45.3331V45.3298V45.3265V45.3231V45.3198V45.3165V45.3131V45.3098V45.3064V45.303V45.2996V45.2962V45.2929V45.2894V45.286V45.2826V45.2792V45.2757V45.2723V45.2688V45.2654V45.2619V45.2584V45.2549V45.2514V45.2479V45.2444V45.2409V45.2374V45.2338V45.2303V45.2267V45.2232V45.2196V45.216V45.2124V45.2088V45.2052V45.2016V45.198V45.1944V45.1907V45.1871V45.1834V45.1798V45.1761V45.1724V45.1687V45.165V45.1613V45.1576V45.1539V45.1502V45.1465V45.1427V45.139V45.1352V45.1314V45.1277V45.1239V45.1201V45.1163V45.1125V45.1086V45.1048V45.101V45.0971V45.0933V45.0894V45.0856V45.0817V45.0778V45.0739V45.07V45.0661V45.0622V45.0583V45.0543V45.0504V45.0464V45.0425V45.0385V45.0345V45.0306V45.0266V45.0226V45.0186V45.0146V45.0105V45.0065V45.0025V44.9984V44.9944V44.9903V44.9862V44.9821V44.9781V44.974V44.9699V44.9657V44.9616V44.9575V44.9533V44.9492V44.945V44.9409V44.9367V44.9325V44.9283V44.9241V44.9199V44.9157V44.9115V44.9073V44.903V44.8988V44.8945V44.8903V44.886V44.8817V44.8775V44.8732V44.8689V44.8645V44.8602V44.8559V44.8516V44.8472V44.8429V44.8385V44.8341V44.8298V44.8254V44.821V44.8166V44.8122V44.8078V44.8033V44.7989V44.7944V44.79V44.7855V44.7811V44.7766V44.7721V44.7676V44.7631V44.7586V44.7541V44.7496V44.745V44.7405V44.7359V44.7314V44.7268V44.7222V44.7177V44.7131V44.7085V44.7039V44.6993V44.6946V44.69V44.6854V44.6807V44.6761V44.6714V44.6667V44.662V44.6573V44.6526V44.6479V44.6432V44.6385V44.6338V44.629V44.6243V44.6195V44.6148V44.61V44.6052V44.6004V44.5956V44.5908V44.586V44.5812V44.5764V44.5715V44.5667V44.5618V44.557V44.5521V44.5472V44.5423V44.5374V44.5325V44.5276V44.5227V44.5178V44.5128V44.5079V44.5029V44.498V44.493V44.488V44.483V44.4781V44.4731V44.468V44.463V44.458V44.453V44.4479V44.4429V44.4378V44.4327V44.4277V44.4226V44.4175V44.4124V44.4073V44.4022V44.397V44.3919V44.3868V44.3816V44.3765V44.3713V44.3661V44.3609V44.3557V44.3505V44.3453V44.3401V44.3349V44.3297V44.3244V44.3192V44.3139V44.3086V44.3034V44.2981V44.2928V44.2875V44.2822V44.2769V44.2716V44.2662V44.2609V44.2555V44.2502V44.2448V44.2394V44.2341V44.2287V44.2233V44.2179V44.2125V44.207V44.2016V44.1962V44.1907V44.1853V44.1798V44.1743V44.1689V44.1634V44.1579V44.1524V44.1469V44.1413V44.1358V44.1303V44.1247V44.1192V44.1136V44.1081V44.1025V44.0969V44.0913V44.0857V44.0801V44.0745V44.0688V44.0632V44.0576V44.0519V44.0462V44.0406V44.0349V44.0292V44.0235V44.0178V44.0121V44.0064V44.0007V43.9949V43.9892V43.9834V43.9777V43.9719V43.9661V43.9604V43.9546V43.9488V43.943V43.9371V43.9313V43.9255V43.9196V43.9138V43.9079V43.9021V43.8962V43.8903V43.8844V43.8785V43.8726V43.8667V43.8608V43.8549V43.8489V43.843V43.837V43.831V43.8251V43.8191V43.8131V43.8071V43.8011V43.7951V43.7891V43.783V43.777C101.04 42.5429 100.713 41.4399 99.992 40.545L103.097 32.9734C109.273 33.4121 115.059 29.3724 116.614 23.1585C118.357 16.1935 114.123 9.13445 107.159 7.39165C101.026 5.85705 94.8197 8.95608 92.2347 14.4735L72.8227 11.8265ZM53.8374 100.519C56.4079 102.952 59.2798 104.864 62.4467 106.259L56.1493 112.868C54.7287 111.725 53.0436 110.863 51.1585 110.392C49.586 109.998 48.0087 109.909 46.4889 110.088L41.6755 94.2035L48.8351 93.8757C50.227 96.4402 51.8913 98.6565 53.8335 100.515L53.8374 100.519ZM72.6864 16.8541L91.0166 19.3537C90.9682 20.3015 91.0249 21.2387 91.1784 22.1516L73.7999 36.8855C72.795 37.0551 71.8048 37.2621 70.8294 37.5067L66.9621 24.9833C69.6823 23.2599 71.7707 20.529 72.6141 17.1585C72.6395 17.057 72.6636 16.9556 72.6864 16.8541ZM56.8473 26.614C58.6886 27.0748 60.5366 27.1178 62.2911 26.8031L66.0711 39.0437C64.7019 39.5904 63.3654 40.2192 62.0616 40.9303L62.0595 40.9315C56.4248 44.0226 52.0384 48.393 48.9159 54.0266C47.7881 56.0612 46.8647 58.1632 46.1454 60.3317L34.423 70.2703L31.4066 60.3162C34.3966 58.6231 36.7141 55.755 37.614 52.1585C38.5917 48.2511 37.6886 44.3142 35.4775 41.3028L52.6133 24.7026C53.8631 25.5661 55.2866 26.2235 56.8473 26.614ZM19.6002 82.8374L23.4104 61.9063C24.5092 62.0433 25.6002 62.0369 26.662 61.9L30.2664 73.7944L19.6002 82.8374ZM39.9109 112.827L26.3172 100.171C26.4287 99.8406 26.5279 99.5028 26.614 99.1585C26.9741 97.7195 27.0791 96.2766 26.9576 94.8773L36.5224 94.4394L41.7279 111.617C41.0901 111.969 40.4821 112.374 39.9109 112.827ZM90.2845 124.311L60.8298 120.869C60.5854 119.404 60.092 118.002 59.3844 116.721L67.6687 108.026C70.556 108.736 73.6448 109.089 76.9311 109.089C84.0041 109.089 90.2103 107.392 95.5196 103.989L99.5174 114.476C95.1633 115.692 91.5675 119.148 90.3916 123.847C90.353 124.002 90.3173 124.156 90.2845 124.311ZM44.2436 72.4176C44.2436 78.8234 45.0378 84.349 46.6555 88.9703L40.1795 89.2667L36.0034 75.4855L44.4473 68.3265C44.3115 69.6685 44.2436 71.0322 44.2436 72.4176ZM98.2332 31.6554L95.4025 38.5587C91.3018 37.184 86.8968 36.4413 82.1932 36.3246L93.0977 27.0795C94.3456 29.0035 96.1017 30.6026 98.2332 31.6554ZM35.0264 89.5026L25.5019 89.9387C24.8405 88.6855 23.9765 87.5419 22.9411 86.56L31.8467 79.0096L35.0264 89.5026Z" fill="white" stroke="black" stroke-width="2"/>
</svg>
